<svg xmlns="http://www.w3.org/2000/svg" viewBox="0 0 512 512" width="100%" height="100%">
  <defs>
    <linearGradient id="hubGradient" x1="0%" y1="0%" x2="100%" y2="100%">
      <stop offset="0%" stop-color="#6366f1" />
      <stop offset="50%" stop-color="#a855f7" />
      <stop offset="100%" stop-color="#ec4899" />
    </linearGradient>
    <filter id="glow" x="-10%" y="-10%" width="120%" height="120%">
      <feDropShadow dx="0" dy="8" stdDeviation="16" flood-color="#6366f1" flood-opacity="0.4"/>
    </filter>
  </defs>

  <!-- Background Squircle -->
  <rect x="32" y="32" width="448" height="448" rx="112" fill="url(#hubGradient)" filter="url(#glow)" />

  <!-- Open Book Emblem -->
  <!-- Left Page -->
  <path d="M 256 160 C 210 135 140 135 96 150 L 96 355 C 140 340 210 340 256 365 Z" fill="#ffffff" opacity="0.96" />
  <!-- Right Page -->
  <path d="M 256 160 C 302 135 372 135 416 150 L 416 355 C 372 340 302 340 256 365 Z" fill="#ffffff" opacity="0.85" />
  <!-- Center Spine Divider -->
  <path d="M 256 155 L 256 365" stroke="#6366f1" stroke-width="10" stroke-linecap="round" />
  
  <!-- Subtle Page Accent Lines -->
  <path d="M 140 210 Q 185 200 220 212" stroke="#6366f1" stroke-width="6" stroke-linecap="round" opacity="0.4" />
  <path d="M 140 250 Q 185 240 220 252" stroke="#6366f1" stroke-width="6" stroke-linecap="round" opacity="0.4" />
  <path d="M 292 212 Q 327 200 372 210" stroke="#a855f7" stroke-width="6" stroke-linecap="round" opacity="0.4" />
  <path d="M 292 252 Q 327 240 372 250" stroke="#a855f7" stroke-width="6" stroke-linecap="round" opacity="0.4" />
</svg>
